<svg width="128" height="128" viewBox="0 0 128 128" fill="none" xmlns="http://www.w3.org/2000/svg">
    <path d="M96.1177 63.6544C96.4942 62.9485 97.5059 62.9485 97.8824 63.6544L104.216 75.5294C104.571 76.1955 104.088 77 103.333 77H90.6667C89.9117 77 89.4291 76.1955 89.7843 75.5294L96.1177 63.6544Z" stroke="#5D5FEF" stroke-width="4"/>
    <path d="M102 90H93C91.8954 90 91 90.8954 91 92V102C91 103.105 91.8954 104 93 104H102C103.105 104 104 103.105 104 102V92C104 90.8954 103.105 90 102 90Z" stroke="#5D5FEF" stroke-width="4"/>
    <path d="M97 52C100.866 52 104 48.866 104 45C104 41.134 100.866 38 97 38C93.134 38 90 41.134 90 45C90 48.866 93.134 52 97 52Z" stroke="#5D5FEF" stroke-width="4"/>
    <path d="M22.6295 97.0331C22.639 98.1376 23.5422 99.0253 24.6467 99.0158C25.7512 99.0062 26.6389 98.1031 26.6294 96.9986L22.6295 97.0331ZM22.0001 24.0172L22.6295 97.0331L26.6294 96.9986L25.9999 23.9828L22.0001 24.0172Z" fill="#5D5FEF"/>
    <path d="M25 43H23V47H25V43ZM77 47C78.1046 47 79 46.1046 79 45C79 43.8954 78.1046 43 77 43V47ZM25 47H77V43H25V47Z" fill="#5D5FEF"/>
    <path d="M25 95C23.8954 95 23 95.8954 23 97C23 98.1046 23.8954 99 25 99V95ZM78.4142 98.4142C79.1953 97.6332 79.1953 96.3668 78.4142 95.5858L65.6863 82.8579C64.9052 82.0768 63.6389 82.0768 62.8579 82.8579C62.0768 83.6389 62.0768 84.9052 62.8579 85.6863L74.1716 97L62.8579 108.314C62.0768 109.095 62.0768 110.361 62.8579 111.142C63.6389 111.923 64.9052 111.923 65.6863 111.142L78.4142 98.4142ZM25 99H77V95H25V99Z" fill="#5D5FEF"/>
    <path d="M25 71H77" stroke="#5D5FEF" stroke-width="4" stroke-linecap="round"/>
</svg>
